<svg xmlns="http://www.w3.org/2000/svg" viewBox="0 0 64 64" role="img" aria-label="COALA">
  <rect width="64" height="64" rx="18" fill="#f6fbf3"/>
  <path fill="#124f38" d="M15 28a13 13 0 0 1 20.3-10.7 13 13 0 1 1 13.4 21.9 17.5 17.5 0 0 1-33.4 0A13 13 0 0 1 15 28Z"/>
  <path fill="#f6fbf3" d="M21.7 29.2a5.8 5.8 0 1 0 0-.1ZM42.3 29.2a5.8 5.8 0 1 0 0-.1Z" opacity=".9"/>
  <circle cx="25.8" cy="33" r="2.5" fill="#f6fbf3"/>
  <circle cx="38.2" cy="33" r="2.5" fill="#f6fbf3"/>
  <path fill="#f6fbf3" d="M32 38.4c3.7 0 6.8 2.4 6.8 5.3S35.7 49 32 49s-6.8-2.4-6.8-5.3 3.1-5.3 6.8-5.3Z"/>
  <path fill="#124f38" d="M32 39.8c2.2 0 4 1.2 4 2.7s-1.8 3-4 3-4-1.4-4-3 1.8-2.7 4-2.7Z"/>
  <path fill="#4caf82" d="M38.5 16.2c5.4-5 11.8-5.7 17.1-3-1.8 5.6-6.8 9.8-13.9 9.5-2.4-.1-4.4-.7-5.9-1.5 1-1.8 1.8-3.4 2.7-5Z"/>
</svg>
