<svg xmlns="http://www.w3.org/2000/svg" viewBox="0 0 64 64" role="img" aria-label="COALA">
  <rect width="64" height="64" rx="16" fill="#f6fbf3"/>
  <path
    fill="#124f38"
    d="M17.4 53.2c-6.3-10.5-5.9-23.1 1-30.9 3.4-3.9 8-6.2 12.9-7 .9 4.8.4 9.9-1.7 14.6-4 9.1-5.1 15.3-.7 22.4-3.8 1.7-7.7 2-11.5.9Z"
    transform="rotate(-24 25 34)"
  />
  <path
    fill="#124f38"
    d="M34.8 53.9c-4.1-11.5-1-24.9 7.6-32.7 3.8-3.4 8.4-5.2 13.1-5.4.3 5.1-.9 10.2-3.7 14.6-5.6 8.9-7.8 15.2-4.6 23.2-4.1 1.2-8.3 1.3-12.4.3Z"
    transform="rotate(25 45 35)"
  />
</svg>
