<svg xmlns="http://www.w3.org/2000/svg" viewBox="0 0 64 64" role="img" aria-label="COALA">
  <circle cx="18" cy="28" r="12" fill="#d8ded8"/>
  <circle cx="46" cy="28" r="12" fill="#d8ded8"/>
  <circle cx="18" cy="28" r="6.5" fill="#f6fbf3"/>
  <circle cx="46" cy="28" r="6.5" fill="#f6fbf3"/>
  <circle cx="32" cy="34" r="19" fill="#d8ded8"/>
  <path fill="#eef3ee" d="M20.5 38.5c2.4 8.2 20.6 8.2 23 0 0 8.1-5 14.2-11.5 14.2s-11.5-6.1-11.5-14.2Z"/>
  <circle cx="25.3" cy="32.8" r="2.2" fill="#163926"/>
  <circle cx="38.7" cy="32.8" r="2.2" fill="#163926"/>
  <path fill="#163926" d="M32 36.2c3.4 0 5.8 1.8 5.8 4.2 0 2.7-2.5 4.9-5.8 4.9s-5.8-2.2-5.8-4.9c0-2.4 2.4-4.2 5.8-4.2Z"/>
  <path fill="none" stroke="#163926" stroke-width="2" stroke-linecap="round" d="M28.2 47.3c1.1 1.3 2.4 1.9 3.8 1.9s2.7-.6 3.8-1.9"/>
</svg>
