<svg xmlns="http://www.w3.org/2000/svg" viewBox="0 0 64 64" role="img" aria-label="COALA">
  <rect width="64" height="64" rx="16" fill="#f6fbf3"/>
  <circle cx="19" cy="29" r="12" fill="#124f38"/>
  <circle cx="45" cy="29" r="12" fill="#124f38"/>
  <circle cx="32" cy="34" r="20" fill="#124f38"/>
  <circle cx="19" cy="29" r="6" fill="#f6fbf3"/>
  <circle cx="45" cy="29" r="6" fill="#f6fbf3"/>
  <circle cx="25" cy="32" r="3" fill="#f6fbf3"/>
  <circle cx="39" cy="32" r="3" fill="#f6fbf3"/>
  <path fill="#f6fbf3" d="M32 38c3.1 0 5.5 1.7 5.5 3.8S35.1 46 32 46s-5.5-2.1-5.5-4.2S28.9 38 32 38Z"/>
  <path fill="#124f38" d="M32 39.5c1.7 0 3 .9 3 2s-1.3 2.2-3 2.2-3-1.1-3-2.2 1.3-2 3-2Z"/>
</svg>
